<?xml version="1.0" encoding="utf-8"?>
<!-- Generator: Adobe Illustrator 16.0.0, SVG Export Plug-In . SVG Version: 6.00 Build 0)  -->
<!DOCTYPE svg PUBLIC "-//W3C//DTD SVG 1.1//EN" "http://www.w3.org/Graphics/SVG/1.1/DTD/svg11.dtd">
<svg version="1.1" id="Layer_1" xmlns="http://www.w3.org/2000/svg" xmlns:xlink="http://www.w3.org/1999/xlink" x="0px" y="0px"
	 width="800px" height="800px" viewBox="0 0 800 800" enable-background="new 0 0 800 800" xml:space="preserve">
<g id="Layer_1_1_">
	<circle fill="#4F0707" cx="395.5" cy="402.5" r="313.5"/>
	<path display="none" fill="none" stroke="#F062A4" stroke-width="0.25" stroke-miterlimit="10" d="M576.354,268
		c0,41.854-38.844,75.667-86.76,75.667c-47.917,0-86.094-33.813-86.094-75.667s38.177-75.899,86.094-75.899
		C537.51,192.101,576.354,226.146,576.354,268z"/>
	<path fill="#FFFFFF" stroke="#231F20" stroke-width="0.25" stroke-miterlimit="10" d="M491.667,343.667
		c45.707,0,84.687-33.291,84.687-75.667c0-34.375-31.147-75.899-85.149-75.899c-49.23,0-87.702,33.769-87.702,75.899
		c0-50.334,0-119.36,0-168.333c148.702,0,294.958,127.667,294.958,302.667c0,176.203-145.791,303.792-294.958,303.792
		c0-29.725,0-59.373,0-90.792c58.036,0.311,105.369,0.311,133.701,0.311c23.001,0,46.132-19.728,46.132-41.727
		c0-21.334,0-150.024,0-179.917c0-23.802-22.134-42-53.464-42c-22.667,0-56.666,0-126.369,0c0-27.13,0-42.798,0-84
		C403.5,313.625,445.625,343.667,491.667,343.667"/>
	<polyline fill="#FFFFFF" points="235.5,206.25 350.827,206.25 350.827,526.417 403.5,526.417 403.5,615.644 235.5,615.644 
		235.5,206.25 	"/>
	<path fill="#FFFFFF" d="M403.5,526.417c0,0,15.375,0,24.125,0c7.625,0,14.479-5.557,14.479-14.307c0-15.668,0-58.529,0-76.278
		c0-7.457-6.729-13.102-14.479-13.102c-4.056,0-10.591-0.493-24.125,0C403.5,443.375,403.5,526.417,403.5,526.417z"/>
	
		<circle display="none" fill="none" stroke="#EE2962" stroke-width="0.25" stroke-miterlimit="10" cx="395.229" cy="402.896" r="303.229"/>
</g>
<g id="Layer_2">
</g>
</svg>
